<?xml version="1.0" encoding="UTF-8"?>
<svg id="Layer_1" data-name="Layer 1" xmlns="http://www.w3.org/2000/svg" version="1.1" viewBox="0 0 989.6 844.5">
  <defs>
    <style>
      .cls-1 {
        fill: #000;
        stroke-width: 0px;
      }
    </style>
  </defs>
  <path class="cls-1" d="M496.2,0c1.3.2,2.6.4,3.9.5,8.6,1.3,17.2,2.6,23.6,9q-.8,6.4-2.8,8.4c-10.1.1-20.3-2.2-30.2-4.1-1.3-.2-2.5-.5-3.8-.7q-1.8-.4-3.6-.7c-1.1-.2-2.1-.4-3.2-.6q-2.6-.8-5.4-3.6-.2-3.7,0-7c7.1-4.1,13.8-2.4,21.5-1.1Z"/>
  <path class="cls-1" d="M441.9,28.7c55.3.9,112.6,17.1,160.2,45.2,1.4.8,2.8,1.6,4.2,2.5,25.1,15,47.4,33.5,68.6,53.5,1.2,1.1,2.3,2.2,3.5,3.3,7.9,7.7,14.9,16,21.7,24.7q1.2,1.4,2.3,2.9c3.1,4,4.6,6.6,5.2,11.7q-.5,3.7-1.9,5.1-3.9.5-8.4,0-3-2.8-5.7-6.5c-.9-1.3-1.9-2.5-2.8-3.9-.9-1.2-1.8-2.4-2.7-3.7-1.4-1.6-2.8-3.3-4.2-4.9q-2.8-3.5-2.8-6.3h-2.8q-2-2.1-4.4-4.9c-9.7-11.3-20.3-20.9-32-30.1-.9-.7-1.8-1.4-2.7-2.2-12.6-10-25.2-19.3-39.3-27.2-.9-.5-1.9-1.1-2.8-1.6-45.8-25.9-94.7-39-146.8-43.1-1.8-.2-3.6-.3-5.4-.5q-2.4-.2-4.9-.4t-6.6-3.4q-.3-3.5,0-7c3.7-3.7,5.4-3.2,10.6-3.2Z"/>
  <path class="cls-1" d="M628.7,134.1c3.8,3,7.6,5.9,11.4,8.9q1.3,1.2,2.6,2.3v2.8c.8.4,1.6.7,2.5,1.1,11.1,6,19.2,18.6,26.9,28.3,1.1,1.4,2.3,2.8,3.4,4.2,8.6,10.8,16,22.1,23.1,33.9,1.3,2.1,2.6,4.3,3.9,6.4,3.5,5.8,5.8,10.1,4.6,17.1-.9.9-1.8,1.8-2.8,2.8q-3.4-.2-7-1.4-2-2.4-3.8-5.7c-.7-1.3-1.4-2.5-2.1-3.8-.8-1.5-1.6-3-2.5-4.5-12.7-21.6-27.4-40.7-44.8-58.8-.8-.8-1.5-1.6-2.3-2.4-11.1-11.6-22.4-22-35.5-31.2q-1.4-1-2.9-2c-14.3-10.1-28.9-18.6-44.7-26-1.6-.8-3.2-1.5-4.8-2.3-4.4-2.1-8.9-4.1-13.4-6.1-1.3-.6-2.6-1.2-4-1.8-24.9-10.4-51.9-14.9-78.6-17.8-1.2-.1-2.4-.3-3.6-.4-14.6-1.6-29-1.5-43.7-.2-1.6.1-3.3.3-5,.4-3.3.3-6.6.6-9.8,1q-2.3.2-4.6.4c-1.4.1-2.7.3-4.1.4q-3.4-.2-6-2.1t-1.4-5.9,5.4-6.2c83.7-16.9,179.6,14.7,243.6,68.6Z"/>
  <path class="cls-1" d="M615.5,167.6c12.5,11.3,23.8,23.2,34.1,36.5q1.6,2,3.1,4c18.7,24.2,31.6,51.2,41.7,80,.5,1.5,1,2.9,1.6,4.4,7.2,21.8,11.2,45.3,11.3,68.3,0,1.1,0,2.3,0,3.5q.3,46.6-4.5,68c-.3,1.5-.6,3-1,4.5q-7,32.4-10.2,38.9-4.2,1.3-8.4,1.4-2.8-2.8-2.9-5.7c1-8.5,2.6-16.5,4.8-24.8,3.6-14.3,5.7-28.6,7.5-43.2.3-2.1.5-4.2.8-6.3,7.6-56.3-10.9-123.2-43.8-169.2-.9-1.3-1.8-2.6-2.7-3.9-5.7-8-11.7-15.4-18.3-22.7-1-1.1-2-2.2-3-3.4-3.2-3.6-6.4-7.1-9.6-10.6q-1.2-1.4-2.5-2.7c-30.1-32-72.4-51.8-113.7-64.5-1.6-.5-3.1-1-4.7-1.4-9.1-2.6-18.1-4.4-27.5-5.6-1.1-.1-2.2-.3-3.4-.4-60.6-7.4-120.7,6.2-173.1,37.4q-4.1,2.3-7.5,1.9c-.7-.3-1.4-.7-2.2-1-.5-2.8-.9-5.5-1.4-8.4,7.5-5.9,15.1-10.9,23.5-15.3q1.7-.9,3.5-1.8c12.1-6.2,24.6-10.8,37.4-15.1,1.6-.5,3.1-1.1,4.7-1.6,9.1-3,18.3-5.1,27.7-7l3.5-.7c83.7-16.3,171.7,10.7,235.1,66.7Z"/>
  <path class="cls-1" d="M593.4,193.1c18,15.9,32.7,33.8,45.1,54.4.7,1,1.4,2.1,2.1,3.2,32.2,50.6,41.5,119.1,29,177.3-1,4.3-2,8.5-3.1,12.7-.4,1.5-.7,3-1.1,4.6-1.7,7.2-3.5,14.3-5.4,21.4-.3,1.1-.6,2.2-.9,3.3q-1,2.9-3.8,7.1-4.3.3-8.4,0-1.4-1.4-1.6-5.8c.2-5.1,1-9.4,2.3-14.4.4-1.7.9-3.3,1.3-5.1q.7-2.6,1.4-5.2c16.5-63.1,13.1-129.1-20.1-186.5-4.4-7.2-9.1-14.1-14-21-.8-1.1-1.6-2.2-2.4-3.4-13.1-17.7-28.8-32.7-46.6-45.6-1.2-.9-2.4-1.8-3.7-2.7-9.5-6.9-19.7-12.6-29.9-18.3-1-.5-1.9-1.1-3-1.7-48.8-26-112.1-28.7-164.6-13.7-22.1,7.1-43.9,16.5-62.8,30q-1.2.9-2.5,1.8c-2.2,1.6-4.4,3.3-6.7,5-4.6,2.7-7.3,2.9-12.5,2.4q-1.1-3.8-1.4-8.4c4.8-5.6,10.4-9.7,16.5-13.7.9-.6,1.8-1.2,2.8-1.8,17.6-11.4,36.6-19.4,56.3-26.4,1-.4,2-.7,3-1.1,7.9-2.8,15.9-4.6,24.2-6.1,1.2-.2,2.5-.5,3.7-.7,75-14,149.7,9,206.8,58.5Z"/>
  <path class="cls-1" d="M426.5,164.7c24.6-.6,48.7,3.4,72,11.4,1.5.5,3.1,1,4.7,1.6,24.5,8.8,47.3,22.5,66.3,40.3,2.9,2.7,6,5.4,9,8,16.6,14.6,29,34.2,38.9,53.8.7,1.2,1.4,2.5,2.1,3.7,30.1,56,22.9,120.8,6.3,179.6-1.3,4.2-2.7,8.4-4.2,12.6q-7.6,1.9-10.9,0-1.7-2.8-1.1-7.6c.5-2,1-3.9,1.6-5.9.6-2.1,1.1-4.3,1.7-6.4.3-1.1.6-2.2.9-3.3,1.4-5.3,2.6-10.6,3.8-15.9q2.5-10.6,3.5-14.7c7.1-29.2,7.4-61,.5-90.3-.4-1.7-.7-3.5-1.1-5.2-9.8-41.5-35.3-79.5-68.9-105.4-.9-.7-1.9-1.5-2.8-2.3-40.9-31.9-93-44.2-144.2-38.3-38.3,5.2-79.5,22.7-106.6,50.7q-2.6,2.5-5.4,2.5v2.8q-4.2,2.8-7.9,2.4t-4.7-2.4,0-7c4.7-6.2,9.8-11,15.9-15.7.9-.7,1.7-1.3,2.6-2,38.2-29.1,79.8-44.8,127.9-46.9Z"/>
  <path class="cls-1" d="M430.2,199.3q1.4,0,2.8,0c45.7-.3,87.4,18.3,120.1,49.6q1.7,1.6,3.5,3.3c9.2,8.7,16.3,18.3,23.1,28.9.8,1.2,1.6,2.4,2.4,3.6,9.7,15.3,15.6,32.1,20,49.6.3,1.2.6,2.4.9,3.6,6.3,26.4,4.1,54.1-.9,80.4-.2,1-.4,2.1-.6,3.2-3.5,18.4-7.8,38.8-16.2,55.6h-8.4c-2.8-5.6-2.9-8.6-1.2-14.5q.6-2.2,1.3-4.4c.5-1.6.9-3.1,1.4-4.7.9-3.3,1.9-6.6,2.8-9.8.5-1.7.9-3.3,1.4-5,2-7.4,3.7-14.8,5.4-22.3.3-1.3.6-2.5.9-3.8,9.1-42.2,2.5-87.1-20.6-123.8-6.5-9.8-14-18.6-22.1-27.2-.8-.9-1.6-1.9-2.5-2.8-13.7-14.9-32.4-25.5-50.7-33.6-1.2-.5-2.4-1.1-3.7-1.6-32.2-13-71.1-14.2-104.1-4-1.7.5-3.3,1-5,1.5-19.2,6.2-37.3,15.8-52.3,29.3-1.2,1-2.3,2-3.6,3.1-9.3,8.1-18.1,16.6-24.8,27-.5.8-1.1,1.7-1.7,2.5-1.1,1.6-2.1,3.3-3.1,5q-1.5,2.3-4.6,5.8-4.6.5-8.4,0c-1.2-5.4-1.9-8.7.3-13.8,7.4-10.5,15.5-19.9,24.4-29.1,1.5-1.5,2.9-3.1,4.3-4.7,18.1-19.9,46.5-33,71.7-40.6,1.7-.6,3.5-1.1,5.2-1.7,14.1-4,28.1-4.5,42.6-4.5Z"/>
  <path class="cls-1" d="M429.5,233.1q2.2,0,4.5,0c11.7.2,22.4,1.4,33.7,4.6,1.7.5,3.4.9,5.2,1.4,18.8,5.6,38.3,15.4,52.2,29.4v2.8q1.2.6,2.5,1.1c19.6,10.5,32.8,40.1,38.9,60.4,3.1,11.1,5.8,22.2,6.2,33.7,0,1.4.1,2.7.2,4.1.7,35.8-10.2,71.8-22.6,105.1q-1.4,1.4-4.8,1.7t-6.4-3.1c-.6-6.5.7-11.3,3-17.3,3.4-9.6,6-19.4,8.5-29.3.3-1.4.7-2.8,1.1-4.2,3.1-12.8,6-25.3,6.6-38.4,0-1.1.1-2.2.2-3.3,1.5-36.4-11.2-67.5-34.7-95-.7-.8-1.4-1.7-2.1-2.6-15.7-17.1-38.9-28-60.8-33.8-1.2-.3-2.3-.6-3.5-1-30.7-7-64.5-.9-91.4,15.1-3.7,2.3-7.3,4.8-10.9,7.3-2.9,2-5.8,3.7-9,5.2v2.8c-1.6,1.4-3.2,2.8-4.9,4.1-10.7,9.1-18.4,21.2-24.5,33.7-.6,1.1-1.1,2.2-1.7,3.4-5.4,11.9-8.3,24.5-11.6,37.2-2.1,8.1-4.2,16.1-6.5,24.2-.3,1.2-.6,2.3-1,3.6-1.4,4.8-2.3,8-5.9,11.6q-2.7,1.3-5.9.9c-.8-.3-1.6-.6-2.4-1-1.9-8.6-.5-14.3,2.3-22.6,3.2-10.1,5.9-20.1,8.2-30.4,8.5-37.3,30.8-69,63.2-89.5,23.1-14.2,47.1-21.9,74.4-21.8Z"/>
  <path class="cls-1" d="M495.2,288.2q1.6,1.3,3.3,2.7c1.3,1,2.5,2,3.8,3,19.2,16.3,33.5,41.4,35.7,66.7,1.2,24.6-2,46.7-8.8,70.2q-.4,1.3-.8,2.7c-2.9,10-5.8,19.9-9,29.8-.5,1.4-.9,2.9-1.4,4.4-1.5,3.8-3,6.4-5.7,9.4q-3.6.6-7,0-2.8-4.2-2.4-8.2c.9-4.1,2-8,3.3-12q.7-2.2,1.4-4.4c.5-1.5,1-3.1,1.5-4.7,2-6.6,4-13.2,6-19.8.4-1.5.9-2.9,1.3-4.4,9.4-31.2,12.2-62.6-2.2-92.6-8.3-15.2-19.4-27.1-34.2-36q-1.8-1.1-3.7-2.3c-23.4-12.9-49.2-14.5-74.7-7.5-14.8,4.6-27.2,12.6-37.8,23.8h-2.8c-.4.8-.7,1.6-1.1,2.4-2.4,4.6-5.6,8.6-8.8,12.8-7.4,11.8-11.2,24.1-14.4,37.6-3.5,14.7-7.4,29.1-12.4,43.4-.4,1.2-.9,2.5-1.3,3.7-3.2,8.9-7,17.4-11,26-.9,2-1.9,4.1-2.8,6.1-4.3,9.3-8.6,18.5-13.5,27.5-.7,1.3-1.4,2.7-2.2,4q-2.6,3-7.1,4.1c-1.3,0-2.6.2-3.9.3q-2.8-4.2-2.5-8.2c1.2-4.6,2.8-8.2,5.1-12.3.8-1.5,1.6-3,2.5-4.6.9-1.6,1.7-3.2,2.6-4.9,15.8-29.7,26.6-61.2,34.4-93.9,6.8-27.9,20.5-51.7,44.7-68,39.3-23.4,88-25.5,125.5,2.9Z"/>
  <path class="cls-1" d="M478.9,316.1c13.8,11.2,20.2,24.8,23.8,42,.5,5.4.6,10.7.5,16.2q0,2.2,0,4.5c-.5,24.8-6.7,46.9-14.5,70.3-.9,2.7-1.7,5.3-2.6,8-1,3.2-2.1,6.4-3.2,9.6-.6,1.7-1.2,3.5-1.8,5.3q-2.3,3.8-6.5,5.3-4.2-.1-6.6-2.2c-.6-.7-1.2-1.4-1.8-2.1,2.5-8.7,5.3-17.4,8.3-26,11.3-33.1,23.1-70.3,8.5-104.2-8.4-14.2-19.5-20.5-35-25.2-17-4.2-34.1-1.9-49.3,6.6-18.4,11.8-24.6,28.2-29.7,48.9q-19.5,78.3-41.4,104.1-3.3-.3-7-1.4-1.8-2.3-2.8-5.6,1.2-3.9,3.4-8.3,1.2-2.5,2.4-5c.4-.9.9-1.7,1.3-2.6,2.2-4.5,4.3-9,6.4-13.4.4-.9.8-1.8,1.3-2.7,11.8-24.9,18.7-51.8,25.5-78.5,5.3-20.7,16.6-37.5,35-48.8,27-14.8,60.4-12.1,85.7,5.2Z"/>
  <path class="cls-1" d="M450.9,339.9c9.6,6.9,17.2,14.7,19.6,26.6,3.7,31.5-12,65.9-22.4,95.2-.5,1.4-1,2.8-1.5,4.3-.5,1.3-.9,2.5-1.4,3.8q-.6,1.6-1.2,3.3t-5.7,4.4c-4.7-.5-5.3-1.3-8.3-4.6,2.8-9.6,5.9-19.1,9.1-28.5q16.1-39.2,16.4-79.4c-3.4-6.7-8.3-10.7-14.8-14.2-8.2-2.3-15.7-1.7-23.4,1.7-8.5,5.3-12,13.6-14.3,23.1-.5,2.3-1,4.6-1.5,7-7.3,32.5-18.9,65.1-34.6,94.5-2.8,0-5.6,0-8.4,0q-1.4-1.4-1.8-5.6c.5-6.9,2.8-11.5,5.9-17.5,5.7-12,10.3-24.3,14.5-36.9.3-.9.6-1.8.9-2.7,3.8-11.4,7-22.9,9.6-34.6,3.6-16,8.4-30.4,22.7-39.7,11.9-6.9,28.6-6.5,40.6,0Z"/>
  <path class="cls-1" d="M432.2,369.7q3.3,1,4.7,2.4c.6,8.5-1.1,15.8-3.3,24q-.5,2.1-1.1,4.2c-5,18.5-11.4,36.5-18,54.4-.6,1.7-1.2,3.4-1.8,5.1-.6,1.6-1.2,3.3-1.8,4.9-.5,1.5-1.1,2.9-1.6,4.4-1.6,3.5-2.7,5.6-5.9,7.9q-4.5-.4-8.4-1.4c-1.5-5.5-1.3-8.6.9-13.8.5-1.3,1.1-2.6,1.6-3.9.6-1.4,1.2-2.8,1.8-4.2,1.2-2.9,2.4-5.9,3.5-8.8.6-1.4,1.2-2.9,1.8-4.4,7-17.8,11.9-36,16.4-54.5.4-1.6.8-3.1,1.2-4.7.3-1.4.7-2.8,1-4.2,1.8-5.2,3.3-7.9,9.1-7.4Z"/>
  <path class="cls-1" d="M585.3,526.1q1.7.6,3.4,1.3c17.2,7.5,27.1,20.9,34.2,37.6q1.6,4.5,1.6,8.7c-5,.3-10,.5-15,.7q-2.1.1-4.3.3c-4.1.1-7.6,0-11.6-1-2.6-2.6-4.1-5-5.6-8.4-3-6.3-8.7-9.3-14.7-12.3-11.8-3.9-25.6-3.2-36.8,2-9.1,5.8-15.5,15.1-18,25.5-1.5,14.9,0,27.8,9.7,39.8,9,9.1,18.2,11.3,30.7,11.3,9.8-.2,17-2.5,24.2-9.2.7-.8,1.4-1.6,2.2-2.4h2.8c.4-.8.8-1.6,1.1-2.4.5-1.1,1.1-2.1,1.7-3.2.4-1.2.8-2.4,1.3-3.7q2.9-3.3,6-3.9c4-.1,7.9,0,11.9.1,1.4,0,2.8,0,4.2,0,3.4,0,6.8.2,10.2.3-1.8,16.6-9.8,29.4-22.4,40.6-3.1,1.8-6.2,3.5-9.4,5.1q-2.5,1.2-5,2.5c-16.6,7.5-39.5,8.1-56.8,2.7-6.6-2.7-12.6-6.1-18.4-10.2-1.2-.8-2.3-1.6-3.5-2.4-.7-.6-1.4-1.2-2.1-1.8v-2.8h-2.8c-14.9-14.8-17.3-34.4-17.3-54.2.2-11.8,1.7-20.8,7.5-31.2q.9-1.7,1.9-3.5c8.7-14.5,22-24.3,38.3-28.7,17.2-3.9,34.2-3.7,50.8,2.8Z"/>
  <path class="cls-1" d="M251.3,523.1c1.6,0,3.2,0,4.9,0,1.8,0,3.5,0,5.3,0,1.8,0,3.6,0,5.4,0,3.8,0,7.6,0,11.4,0,4.9,0,9.8,0,14.7,0,4.7,0,9.3,0,14,0,1.8,0,3.5,0,5.3,0,1.6,0,3.2,0,4.9,0,1.4,0,2.9,0,4.3,0q3.2.2,4.6,1.6c.1,1.9.1,3.8.1,5.6,0,1.1,0,2.3,0,3.4q0,1.8,0,3.6c0,1.2,0,2.4,0,3.6,0,3,0,5.9,0,8.9-5.4,1.7-10.7,1.6-16.3,1.5-1,0-2,0-3.1,0-3.2,0-6.5,0-9.7,0-2.2,0-4.4,0-6.6,0-5.4,0-10.8,0-16.1,0-1.7,3.4-1.6,5.7-1.5,9.5q0,2,0,4c0,1.4,0,2.8,0,4.2,0,1.4,0,2.8,0,4.2,0,3.4,0,6.9,0,10.3,4.1,2.1,7.8,1.5,12.5,1.4,2,0,3.9,0,5.9,0,3.1,0,6.2,0,9.3-.1,3,0,6,0,8.9,0q2.7,0,5.4,0,4.3.3,7.1,3.1v23.8h-49c-.5,15.7-.9,31.4-1.4,47.6-4.1,0-8.1,0-12.3,0-1.3,0-2.6,0-3.9,0-1,0-2,0-3.1,0-1,0-2.1,0-3.1,0q-2.8-.2-7-1.6c0-17.3,0-34.6,0-51.9,0-8,0-16.1,0-24.1,0-7.8,0-15.5,0-23.3,0-3,0-5.9,0-8.9,0-4.1,0-8.3,0-12.4,0-1.2,0-2.5,0-3.8q0-10.2,9.2-10.2Z"/>
  <path class="cls-1" d="M395,523.1c1.2,0,2.4,0,3.7,0,1.3,0,2.6,0,4,0,1.4,0,2.8,0,4.2,0,1.4,0,2.8,0,4.2,0,3.5,0,6.9,0,10.4,0,2.1,5,4.1,10.1,6.2,15.1,1,2.5,2.1,5.1,3.1,7.6,3.9,9.6,7.7,19.1,11.4,28.8,2.9,7.4,5.9,14.8,9,22.2q17.8,43.5,23.5,60.6c-3.4,1.7-5.7,1.6-9.5,1.5-1.3,0-2.6,0-4,0-1.4,0-2.8,0-4.2,0-1.4,0-2.8,0-4.2,0-3.4,0-6.9,0-10.3,0-.6-1.5-1.2-3-1.8-4.5-.8-2-1.5-3.9-2.3-5.9-.4-1-.8-2-1.2-3q-1.7-4.9-4.5-9c-3.9-.1-7.8-.2-11.8-.1q-1.8,0-3.6,0c-3.8,0-7.6,0-11.3,0-2.6,0-5.1,0-7.7,0-6.3,0-12.6,0-18.8,0q-.8,2.2-1.6,4.5c-.7,2-1.5,3.9-2.2,5.9-.4,1-.7,2-1.1,3q-2.8,7.2-6.2,8.9-1.4,0-2.9,0t-3.1.2c-1.1,0-2.2,0-3.3,0-1.2,0-2.4,0-3.6,0q-1.8,0-3.7,0c-1.2,0-2.5,0-3.8,0-3.1,0-6.1,0-9.2,0l-1.4-2.8c1.4-3.8,2.9-7.4,4.5-11,4.8-11,9.3-22.1,13.6-33.3,6.7-17.1,13.5-34.2,20.3-51.3.5-1.2,1-2.5,1.5-3.7,1.4-3.5,2.8-7.1,4.2-10.6.4-1,.8-2.1,1.3-3.2q7.9-19.8,12-20ZM404.7,563.9c-2.3,5.6-4.6,11.1-6.8,16.7-.6,1.6-1.3,3.1-2,4.7-.6,1.5-1.2,3.1-1.9,4.7q-.9,2.1-1.7,4.2c-1.9,5.6-3.1,11.5-4.4,17.2h37.8c-1.7-8.5-4.7-16.2-7.9-24.2-1.1-2.8-2.1-5.5-3.2-8.3-.7-1.8-1.4-3.5-2-5.2-.6-1.6-1.2-3.2-1.9-4.8q-1.6-4.1-6.1-5Z"/>
  <path class="cls-1" d="M641.3,523.3h114.8c1.3,4,1.5,5.8,1.2,9.8,0,1-.1,1.9-.2,2.9q-.1,1.8-.3,3.6-.4,5.8-.8,11.6-20.1.7-40.6,1.4c-.5,34.6-.9,69.3-1.4,105h-30.8c-.5-34.6-.9-69.3-1.4-105-13.4-.5-26.8-.9-40.6-1.4-2.6-2.6-1.6-6.4-1.6-9.8,0-1.1,0-2.2,0-3.4,0-1.1,0-2.2,0-3.3q0-8.3,1.6-11.4Z"/>
  <path class="cls-1" d="M49.3,720.6q2.7,0,5.5,0c1.8,0,3.6,0,5.5,0,1.4,0,2.8,0,4.2,0,.5,1.4.9,2.8,1.4,4.2q-9,.7-18.2,1.4v14h16.8v4.2c-5.1.5-10.2.9-15.4,1.4-.5,5.1-.9,10.2-1.4,15.4h-4.2c0-5.6,0-11.1,0-16.7,0-1.9,0-3.8,0-5.7,0-2.7,0-5.4,0-8.1,0-1.6,0-3.3,0-5,.2-5.4.5-5.1,6-5.3Z"/>
  <path class="cls-1" d="M106.5,720.7c6.3,2.1,9.1,7.1,12.7,12.3.6.9,1.2,1.7,1.8,2.6,2.6,3.8,5.1,7.5,7.4,11.5q1.6,3.1,4.6,4.4v-29.4h5.6v39.2l-4.2,1.4c-5.1-4.8-9.1-9.7-12.9-15.7q-3.7-5.8-8.1-10.9v-4.2h-2.8c-.5,10.2-.9,20.3-1.4,30.8-1.4-.5-2.8-.9-4.2-1.4,0-5.6,0-11.1,0-16.7,0-1.9,0-3.8,0-5.7,0-2.7,0-5.4,0-8.1,0-1.6,0-3.3,0-5q.2-3.8,1.6-5.2Z"/>
  <path class="cls-1" d="M183.5,721.7c4.3,2.2,6.7,4.1,9,8.4.3,1,.5,2.1.8,3.1-4.1-.6-5.6-1.4-8.7-4.3-4.2-3-7.1-3.6-12.2-3.3-5.3,1.2-7.8,3.5-11.2,7.6-1.9,6-1.6,11.3-.5,17.4q1.6,3.7,4.9,5.5c7.2,1.6,12.8,2.3,19.3-1.5q3.5-3.4,4.3-10.2h-15.4v-4.2c3.2,0,6.4-.1,9.6-.2q2.7,0,5.4,0,4.6.3,7.4,3.1c-2,7-4.5,14.4-11,18.4-5.6,2.2-11.2,2-17,1.2-6.5-3.4-11.6-6.9-14-14-.8-8-.4-14.2,4.2-21,7.3-6.7,15.6-9.4,25.2-6Z"/>
  <path class="cls-1" d="M216.5,720.5c1.5,0,3,0,4.5,0q2.2,0,4.5,0c3.5.2,6.4.6,9.8,1.6v2.8c-4.4,1.5-7.5,1.5-12.2,1.5-1.4,0-2.8,0-4.2,0q-1.6,0-3.2,0c.5,3.7.9,7.4,1.4,11.2,5.1.5,10.2.9,15.4,1.4v4.2c-5.1.5-10.2.9-15.4,1.4-.5,4.2-.9,8.3-1.4,12.6,6.9.5,13.9.9,21,1.4l-1.4,4.2c-3.7,0-7.3.1-11,.2-1,0-2.1,0-3.2,0-2.7,0-5.5-.1-8.2-.2q-2.8-2.8-3-6.6c0-1.6.1-3.1.2-4.7,0-1.7.1-3.4.2-5.1,0-1.8.2-3.5.3-5.4,0-1.8.1-3.6.2-5.4q.6-14.7,5.8-15Z"/>
  <path class="cls-1" d="M303.9,720.7q2.6.1,5.3.3c1.7,0,3.5.2,5.2.2,5.6,1,8,2.5,11.9,6.5,1.6,5.4,2,8.4-.2,13.6-4.8,5.7-9.1,7.5-16.4,8.3-2,.2-3.9.3-5.9.4v11.2h-5.6c0-5.6,0-11.1,0-16.7,0-1.9,0-3.8,0-5.7,0-2.7,0-5.4,0-8.1,0-1.6,0-3.3,0-5,.2-5.3.4-5.1,5.7-5.2ZM302.5,727.7q-.4,3.7-.3,7.8c0,1.4,0,2.8,0,4.2q-.1,3.3,1.6,4.8c5.7.6,10.9.7,16.2-1.5q2.4-2.8,2.8-7.5t-3.7-8.4c-5.9-3.1-11.7-4.4-16.7.6Z"/>
  <path class="cls-1" d="M359.9,720.7c5.1,1.8,7.6,3.3,11.1,7.3,2,5.1,1.5,8.4,0,13.6q-1.9,2.7-4.2,4.2h-4.2c.6.9,1.2,1.7,1.9,2.6.8,1.1,1.6,2.3,2.4,3.4.8,1.1,1.6,2.2,2.4,3.4.6,1,1.1,2.1,1.7,3.2l-1.4,4.2c-5.2-1.7-5.5-3.2-8.1-7.8q-2.1-3.4-4.5-6.2-4.6-1.1-8.4,0c-.5,4.2-.9,8.3-1.4,12.6h-4.2v-39.2c5.2-2.6,11.1-1.9,16.8-1.4ZM347.3,726.3v16.8c2.2,0,4.4.2,6.6.3,1.2,0,2.5,0,3.7.1,4.3-.5,6.1-1.6,9.2-4.6q.8-4.2,0-8.4c-2.2-2.9-3.8-4-7-5.6q-6.5-.4-12.6,1.4Z"/>
  <path class="cls-1" d="M389.3,720.7c1.4.5,2.8.9,4.2,1.4v39.2h-5.6c0-5.6,0-11.1,0-16.7,0-1.9,0-3.8,0-5.7,0-2.7,0-5.4,0-8.1,0-1.6,0-3.3,0-5q.2-3.8,1.6-5.2Z"/>
  <path class="cls-1" d="M413.1,720.7c6.3,2.1,9.2,7.1,12.8,12.3.6.9,1.2,1.7,1.9,2.6,3.3,4.7,5.9,9,7.7,14.4h4.2v-28h4.2v39.2l-2.8,1.4c-6.7-6.1-11.4-13.7-16.5-21.1-.7-1-1.4-2.1-2.2-3.2q-1-1.4-2-2.9t-4.6-3.7v29.4h-4.2c0-5.6,0-11.1,0-16.7,0-1.9,0-3.8,0-5.7,0-2.7,0-5.4,0-8.1,0-1.6,0-3.3,0-5q.2-3.8,1.6-5.2Z"/>
  <path class="cls-1" d="M459.3,720.7c10.6.5,21.3.9,32.2,1.4v2.8q-1.3.1-2.7.3c-1.2.1-2.3.2-3.5.4q-1.7.2-3.5.3t-4.3,1.8c-.1,2.5-.1,5-.1,7.5,0,1.5,0,3,0,4.6,0,1.6,0,3.2,0,4.8,0,1.6,0,3.2,0,4.8,0,4,0,7.9,0,11.9l-4.2,1.4c-1.4-4.3-1.6-7.2-1.5-11.7,0-1.4,0-2.9,0-4.4,0-1.5,0-3,0-4.5q0-2.3,0-4.6c0-3.7,0-7.5,0-11.2h-12.6v-5.6Z"/>
  <path class="cls-1" d="M626.6,720.5q1.9,0,3.8,0c1.3,0,2.6,0,3.9,0q1.9,0,3.9,0c1.2,0,2.5,0,3.8,0,1.1,0,2.3,0,3.5,0q2.8.2,5.6,1.6v2.8c-5.5,1.8-9.1,1.4-15.4,1.4v36.4c-1.4-.5-2.8-.9-4.2-1.4,0-1,0-2,0-3.1,0-4.5,0-9.1,0-13.6,0-1.6,0-3.2,0-4.8,0-1.5,0-3,0-4.6,0-1.4,0-2.8,0-4.2q.2-3.2-1.6-4.6h-4.8q-5,0-7.8-1.4v-2.8c3.3-1.7,5.4-1.6,9.1-1.6Z"/>
  <path class="cls-1" d="M700.1,726.3c4.4,5.5,6.1,11.1,5.3,18.2-1.4,7-3.9,10.8-9.5,15.4-6,4-11.2,3.7-18.2,2.8-6.9-2.4-10.8-6.1-14-12.6-1.4-7.1-1.6-13.9,2-20.3,9.7-11.5,22.4-12.2,34.4-3.5ZM670.7,730.5c-4,5.9-3.9,11.2-2.8,18.2,2.6,5.1,5.7,8,11.2,9.8,6,.6,9.1.4,14.4-2.4q4.5-3.7,6.6-8.7c.6-7.4.7-12.2-4.2-18.2-4.1-3.3-6.6-4.2-11.8-4.8-5.9.7-8.8,2.5-13.4,6.2Z"/>
  <path class="cls-1" d="M722.5,720.7c5.6,2.1,7.6,5.3,10.7,10.4q1.2,2,2.5,4.1t2.2,3.7l2.8,4.2h2.8c3-4.4,5.9-8.9,8.7-13.5.6-.9,1.2-1.9,1.8-2.9.5-.9,1.1-1.8,1.6-2.7.6-.6,1.2-1.3,1.9-1.9h5.6v39.2h-5.6v-26.6l-2.8-1.4c-.3.9-.6,1.8-1,2.8-2.4,5.5-5.6,10.4-8.8,15.4-4.2-.5-5.5-1.2-8.3-4.5-.8-1.3-1.7-2.5-2.6-3.8-.9-1.3-1.7-2.5-2.6-3.8q-1.9-3.3-1.9-6.1l-2.8,1.4c-.5,9.2-.9,18.5-1.4,28-1.4-.5-2.8-.9-4.2-1.4,0-5.6,0-11.1,0-16.7,0-1.9,0-3.8,0-5.7,0-2.7,0-5.4,0-8.1,0-1.6,0-3.3,0-5q.2-3.8,1.6-5.2Z"/>
  <path class="cls-1" d="M798.1,720.7c2.2,5.3,4.4,10.7,6.6,16,.7,1.8,1.5,3.6,2.2,5.4,1.1,2.6,2.1,5.2,3.2,7.8.6,1.6,1.3,3.1,2,4.8q1.4,3.8,1.4,6.6h-4.2c-.6-1.1-1.1-2.3-1.7-3.5-.8-1.2-1.6-2.3-2.5-3.5q-4.8-.8-10.1-.4c-1.8,0-3.6.1-5.4.2-1.4,0-2.7.2-4.1.2l-1.1,3.4c-.5,1.2-1.1,2.4-1.7,3.6l-4.2,1.4c0-5.7,1-8.7,3.1-14,.6-1.6,1.3-3.2,1.9-4.8q1-2.5,2-5t1.9-4.9c.6-1.5,1.2-3,1.8-4.6q.8-2.1,1.7-4.2c1.9-3.8,2.9-4.6,7.2-4.6ZM793.9,729.1c-.9,2.2-1.9,4.4-2.8,6.6-.5,1.2-1,2.5-1.6,3.7q-1.5,3.9-1.2,9.2h14c1.8-5.5.5-7.1-2-12.2-.7-1.4-1.3-2.8-2-4.2-.5-1.1-1-2.1-1.6-3.2h-2.8Z"/>
  <path class="cls-1" d="M826.1,720.7h30.8v4.2q-4.2,1.4-14,1.4v36.4l-4.2-1.4v-35h-11.2c-.9-.5-1.8-.9-2.8-1.4.5-1.4.9-2.8,1.4-4.2Z"/>
  <path class="cls-1" d="M883.5,720.5q2.6,0,5.3,0,4.5.2,7.3,1.6v2.8c-6.9.5-13.9.9-21,1.4.5,3.7.9,7.4,1.4,11.2,5.5.5,11.1.9,16.8,1.4v4.2c-5.5.5-11.1.9-16.8,1.4-.5,4.2-.9,8.3-1.4,12.6,6.9.5,13.9.9,21,1.4l-1.4,4.2c-3.2,0-6.4,0-9.5,0q-2.7,0-5.4,0-4.7-.1-8.9-1.5v-39.2c4.2-2.1,8-1.6,12.6-1.6Z"/>
  <path class="cls-1" d="M82.7,722.1h4.2v39.2h-4.2v-39.2Z"/>
  <path class="cls-1" d="M252.1,722.1c3.6-.1,7.1-.3,10.8-.4,1.1,0,2.2-.1,3.4-.2,5.7-.1,7.8.2,12.5,3.9q2.8,3.8,3.6,8.7c-.9,5.6-2.4,8-6.4,11.9h-2.8c2.6,5.3,5.3,10.4,8.4,15.4q-5.6,0-8-2.4t-2.2-3.1c-.7-1-1.5-2-2.2-3.1q-1.6-2.7-1.6-5.5-5.5.7-11.2,1.4v12.6h-4.2v-39.2ZM256.3,726.3c0,2.5,0,5.1,0,7.6,0,1.4,0,2.8,0,4.3q-.3,3.4,1.5,4.9c6.5.7,12.1,1.1,17.8-2.3q2.2-3.3,1.8-7.6-1.1-4.1-3.6-6.7c-5.5-2.5-11.9-2.9-17.4-.2Z"/>
  <path class="cls-1" d="M539.1,720.7q4.2,1.4,5.9,4.6c.6,1.4,1.1,2.7,1.7,4.1q.9,2.2,1.9,4.5c.6,1.6,1.3,3.1,1.9,4.7q1,2.3,1.9,4.7,5.1,12.5,6.3,18h-5.6l-2.8-7c-3.2-.2-6.4-.3-9.5-.4q-2.7-.1-5.4-.2c-1.6.2-3.1.5-4.7.7q-2.5,3.4-4.2,7h-4.2c2.7-10.2,6.5-19.7,10.8-29.3q1.9-4.1,2.6-7.6c.2-.8.4-1.5.6-2.3l2.8-1.4ZM539.1,730.5c-1.2,2.2-2.3,4.5-3.5,6.7-.6,1.3-1.3,2.5-2,3.8q-1.8,3.5-1.5,7.7h15.4c-.7-7-2.2-12.1-5.6-18.2h-2.8Z"/>
  <path class="cls-1" d="M576.9,720.7c0,.9,0,1.7,0,2.6.1,3.9.3,7.8.4,11.7q0,2,.1,4.1c0,1.3.1,2.6.2,4,0,1.2,0,2.4.1,3.6.5,3.6,1.3,5.9,3.2,8.9,4,2,6.8,1.8,11.2,1.4q3.3-1.8,5.6-5.6c.9-5,1-10,1-15,0-1.4,0-2.8.1-4.2,0-3.4.2-6.8.2-10.2h4.2c.1,4.7.2,9.4.3,14.2,0,1.3,0,2.7.1,4,0,7.6-.2,13.1-4.6,19.6-5.4,3.3-10.6,3.3-16.8,2.8q-3.1-.8-5.6-2.8c-4.5-8.2-4.7-15.1-4.5-24.4,0-1.3,0-2.6,0-3.9,0-3.2.1-6.3.2-9.5q2.8-1.4,4.2-1.4Z"/>
  <path class="cls-1" d="M912.9,722.1c3.5-.1,7-.2,10.7-.3q1.6,0,3.3-.2c7.2-.1,11.1,1.4,16.8,6.1,4.1,4.9,4.9,9,4.6,15.3-.9,6.8-3,11.3-8.2,15.7-5.9,3.1-10,3.2-16.5,2.9q-5.3-.2-10.7-.3v-39.2ZM917.1,726.3v30.8c5.9,2.9,11.8,1.7,17.8-.2,5.5-3.2,6.9-4.9,8.7-11,.2-6.1-.2-10.9-3.8-16-6.6-4.5-15.3-7.4-22.8-3.6Z"/>
  <path class="cls-1" d="M35.5,803.2q7.5,4.3,9.4,9.6v3.1c-3.6-1.6-6.4-3.4-9.5-5.8-5.4-3.2-8.1-3.6-14.3-2.6-5,2.9-7.6,4.5-9.4,10-.9,5.5-.9,8.6,1.6,13.7.7,1,1.4,1.9,2.2,2.9v2.8c5.4,1.8,11.2,2.6,16.8,1.4,2.9-2,5.3-4.1,7.8-6.6q2-1.8,4.8-1.8c-.7,5.2-1.4,8-5.6,11.2-6.3,3.7-12.4,3.7-19.6,2.8-6.8-3.3-10.7-7.2-14-14-1.1-7.1-.8-12.4,2.4-18.8,7.3-8.3,16.5-12.4,27.3-7.9Z"/>
  <path class="cls-1" d="M89.7,802.8c6.4,3.2,10.2,7.7,12.6,14.5,1,7.6-.5,12.9-4.2,19.6-6.8,6.3-11.2,7.5-20.2,7.4-7.1-.8-10.7-4.6-15.3-9.7-3.1-6.4-3.6-11.7-2.3-18.7,5.6-12.2,16.6-17.3,29.4-13.1ZM66.1,813.3c-2.1,5.1-2.5,9.7-1.6,15.1,2.4,4.7,4.2,7.5,8.7,10.4,5.7,1.1,10.9.9,16.5-.6,4.1-3.1,6.7-6.3,8.4-11.2.7-6.8-.4-11.1-4.2-16.8-9.7-6.4-20-6.1-27.8,3.1Z"/>
  <path class="cls-1" d="M359.9,803.3q3.7,2.9,5.6,5.6l-2.8,5.6c-1-1.2-1.9-2.3-2.9-3.5q-3.9-4-9.3-4t-7.4,1.9q-.2,3.4,0,7c3.3,3.3,5.2,3.6,9.6,4.7q9.7,2.8,12.8,7.9.8,4.9,0,9.8c-3,3.8-5.2,5.3-10,6.1-5.8.3-9.2-.3-14.5-2.9-3.8-3.5-4.6-5.1-4.9-10.2h4.2l2.8,7c2.3,0,4.5,0,6.8,0,1.3,0,2.5,0,3.8,0q3.4,0,6.1-1.5v-7q-1.2-.5-2.5-1.1c-2.3-1-4.5-2-6.8-3-2.7-1.2-5.4-2.4-8.2-3.6-3.9-2.3-5.2-3.3-6.4-7.7.3-4,.8-6.3,3.3-9.4,6.1-4.7,13.5-3.3,20.5-1.7Z"/>
  <path class="cls-1" d="M417.3,807.5c4.3,5.2,5.4,10.1,5.6,16.8-.9,5.9-2.3,10.7-6.5,15-5.9,4.1-11.3,5.7-18.4,5.2-6.4-1.2-11.2-4-15.2-9.4-3.3-6.7-3.2-13.3-1.9-20.6,3-5.3,6.7-10.1,12.6-12.2,10-1.6,15.7-.7,23.8,5.2ZM387.9,811.7c-2.9,5-4.2,8.4-4.2,14.1,2,5.9,5.4,11,11.2,13.9,7.5.5,12.1.7,18.2-4.2,4.8-5.3,4.9-9.3,4.7-16.2-.7-4.8-2.5-7.2-6.1-10.4-8.1-5.8-16.8-3.4-23.8,2.8Z"/>
  <path class="cls-1" d="M439.7,801.9c5.3,1.8,5.9,3.6,8.7,8.4q7.2,12.9,17.8,22.4v-29.4h4.2v39.2q-7.9-1.6-11.4-6.6-1.1-1.6-2.2-3.2c-.7-1.1-1.5-2.2-2.3-3.4-.8-1.1-1.5-2.2-2.3-3.3q-5.6-8.2-5.6-11.4h-4.2v28h-4.2c0-5.6,0-11.1,0-16.7,0-1.9,0-3.8,0-5.7,0-2.7,0-5.4,0-8.1,0-1.6,0-3.3,0-5q.2-3.8,1.6-5.2Z"/>
  <path class="cls-1" d="M554.5,801.9c3.8.1,7.5.3,11.3.6q1.6.1,3.2.2c2.6.2,5.3.4,7.9.6v2.8q-9,.7-18.2,1.4v11.2c5.1.5,10.2.9,15.4,1.4l1.4,4.2c-5.5.5-11.1.9-16.8,1.4v12.6q9.7.7,19.6,1.4v2.8c-8,1-15.7,1.7-23.8,1.4-2.6-2.6-1.6-6.6-1.6-10.1,0-1.8,0-3.5,0-5.3,0-.9,0-1.8,0-2.8,0-2.8,0-5.6,0-8.4,0-1.8,0-3.5,0-5.3q0-2.4,0-4.9t1.6-5.1Z"/>
  <path class="cls-1" d="M622,803.5c4.1,2.7,6.6,5.5,9.4,9.5l-1.4,2.8c-3.6-1.6-5.9-3.1-8.8-5.8-5-3.5-7.6-3.5-13.6-2.6q-6.6,3.4-9.8,9.8c-.7,6.5-.9,11.1,2.6,16.8,4.6,4.3,7.8,4.6,14.1,4.5,4.1-.4,6.6-2,9.8-4.5.9-1.4,1.8-2.8,2.8-4.2,1.4.5,2.8.9,4.2,1.4-2.1,5.3-5.2,7.9-9.8,11.2-6.5,2.2-13.2,2.9-19.7.2-6.2-4-9.2-8.3-11.1-15.6-.3-8.4,1.4-14.6,7-21,7.9-5.4,15.4-5.7,24.1-2.5Z"/>
  <path class="cls-1" d="M778.7,803.3c6,4.3,10.1,9.6,11.5,16.9.3,6.5-1.2,11.3-4.8,16.7-6.9,6.2-11.1,7.5-20.2,7.4-7.1-.8-10.7-4.6-15.3-9.7-3.1-6.4-3.4-11.7-2.3-18.7,6.5-12.8,17.5-16.9,31.1-12.6ZM755.2,811.8c-3.5,4.8-3.9,9.5-3.3,15.3,1.7,5.1,3.2,7.6,7.3,11,5.2,2.1,9.7,2.8,15.1,1.6,5-2.6,8.8-5.8,10.9-11.2,1.2-6.7-.1-11.1-3.9-16.8-3.8-4.6-7.1-5.4-12.9-6.2-6.1.7-8.7,2.2-13.1,6.3Z"/>
  <path class="cls-1" d="M874.8,804.2c6.1,4.4,8,7.7,9.8,15,.4,7.8-.8,12.9-5.9,18.8-6.9,5.8-10.7,6.4-19.5,6.2-6.7-.6-9.5-3.2-14-8-3.5-7.3-3.8-13.9-2.4-21.8,2.8-5.4,6.5-8.7,11.7-11.8,7.4-1.6,13.4-2,20.2,1.6ZM849.9,811.7c-4,5.9-3.9,11.2-2.8,18.2,2.6,5.1,5.7,8,11.2,9.8,6,.6,9.1.4,14.4-2.4,5.6-4.7,6.4-6.8,7.1-14.2-.1-6-2.3-9.5-6.1-14.2-8.7-5.8-16.2-3.5-23.8,2.8Z"/>
  <path class="cls-1" d="M931,804.8q2.3,1.8,5.6,5.5v4.2h-4.2c-.8-.9-1.5-1.8-2.3-2.7-4.9-4.2-9.6-4.5-15.9-4.3-5.5,1.9-6.7,3.8-9.7,8.7-1.8,6.3-1.3,9.1,1.3,15,2.7,3.2,4.7,5.1,8.4,7q8.3.6,15.4-2.8c1.7-3.2,2.9-6.4,4.2-9.8h-16.8l1.4-4.2h19.6c1.4,5.7,1.2,7.7-1.3,12.9-2.6,4.3-5.3,7.4-9.9,9.4-7.1,1.1-13.2.9-19.9-1.9-.8-.8-1.7-1.5-2.5-2.3v-2.8h-2.8c-3.1-7.8-5.5-14.1-2.8-22.4q7-10.1,12.5-12.2c6.6-.8,13.7-.7,19.7,2.5Z"/>
  <path class="cls-1" d="M156.9,801.9l2.8,1.4v39.2h-4.2v-29.4h-2.8q-.4,1.4-.9,2.8c-2.6,5.7-6.1,10.8-10.3,15.4l-4.2,1.4c-3.3-4-6.4-8-9.4-12.2-.6-.8-1.2-1.6-1.8-2.5q-1.3-2.2-1.3-5h-2.8v29.4h-4.2v-39.2h5.6q1.9,1.9,3.5,4.5c.6.9,1.2,1.9,1.8,2.9q.9,1.5,1.8,3c1.2,2,2.4,3.9,3.6,5.9.5.9,1.1,1.7,1.6,2.6q1.7,2.5,5.9,3.5c.3-1.1.5-2.2.8-3.3,2.8-7.1,7.6-17,14.6-20.5Z"/>
  <path class="cls-1" d="M189.5,802.1c1.6,0,3.2.2,4.8.2,5.3,1.1,7.8,2.7,11.6,6.5,1.5,4.6,1.6,7.4.5,12.1-2.5,4.4-4.5,6.3-8.9,8.9-4.7.9-9.3,1.2-14,1.4-.5,4.2-.9,8.3-1.4,12.6-1.4-.5-2.8-.9-4.2-1.4v-39.2c4-2,7.2-1.4,11.6-1.1ZM182.1,808.9q-.4,3.7-.3,7.8c0,1.4,0,2.8,0,4.2q-.1,3.3,1.6,4.8t6.8.4c1.2,0,2.5.1,3.8.2q3.6-.3,5.9-3.2c2.3-4.1,2.3-6.8,1.7-11.4-2.2-3-3.6-4.1-7.3-5q-1.6-.2-3.3-.3c-1.1-.1-2.2-.2-3.3-.4q-3.2-.2-5.7,2.9Z"/>
  <path class="cls-1" d="M233.9,803.3h5.6c2.2,5.3,4.4,10.7,6.6,16,.7,1.8,1.5,3.6,2.2,5.4,1.1,2.6,2.1,5.2,3.2,7.8.6,1.6,1.3,3.1,2,4.8q1.4,3.8,1.4,6.6-2.6-.3-5.6-1.4l-2.8-7c-6.9-.5-13.9-.9-21-1.4-.9,2.8-1.8,5.5-2.8,8.4h-5.6c5.4-13.2,10.8-26.3,16.8-39.2ZM233.9,811.7c-.9,2.5-1.9,5-2.8,7.5-.5,1.4-1,2.8-1.6,4.2q-1.4,3.4-1.2,6.4h15.4c-.8-6.4-2.3-11.3-5.6-16.8-1.4-.5-2.8-.9-4.2-1.4Z"/>
  <path class="cls-1" d="M291.3,803.3q4.7,3,7,7c.7,5.7.8,10.7-2.8,15.4q-2.9.8-5.6,1.4c.5.9,1,1.7,1.5,2.6.6,1.1,1.3,2.3,2,3.4.6,1.1,1.3,2.2,2,3.4q1.5,3.2,1.5,7.4c-4.9-2-6.8-4.2-9.6-8.6q-2-3-4.4-5.4-4.6-.9-8.4,0c-.5,4.2-.9,8.3-1.4,12.6h-4.2v-39.2c6.5-3.2,15.5-1.2,22.4,0ZM273.1,807.5v16.8q10.1.9,19.2-2.4c2.2-4,2.8-5.8,1.8-10.2-3-3.5-5.2-5.4-9.9-6-4.1,0-7.5,0-11.1,1.8Z"/>
  <path class="cls-1" d="M315.1,803.3l5.6,1.4v37.8h-5.6v-39.2Z"/>
  <path class="cls-1" d="M537.7,803.3v2.8q-4.2,1.4-14,1.4v36.4l-4.2-1.4v-35h-12.6c-.5-1.4-.9-2.8-1.4-4.2,4.1-.3,8.1-.5,12.2-.8,1.1,0,2.3-.2,3.5-.2,5.8-.4,10.9-.5,16.6,1Z"/>
  <path class="cls-1" d="M648.3,803.3l5.6,1.4v14h21c.5-5.1.9-10.2,1.4-15.4h4.2v39.2h-4.2c-.5-5.5-.9-11.1-1.4-16.8-6.9-.5-13.9-.9-21-1.4-.5,6-.9,12-1.4,18.2h-4.2v-39.2Z"/>
  <path class="cls-1" d="M701.5,801.9c8.2,7.5,14.9,16.7,20.5,26.3q1.7,3.3,4.7,4.5v-29.4c1.8.5,3.7.9,5.6,1.4-.5,12.9-.9,25.9-1.4,39.2q-6.3-1.6-9.4-6.2c-.7-1-1.3-2-2-3-.7-1-1.3-2.1-2-3.1-1.3-2-2.7-4-4-6.1-.6-.9-1.2-1.9-1.9-2.9-1.9-2.8-3.8-5.5-5.9-8.1-2.2,2.2-1.7,4.6-1.8,7.7,0,1.3-.1,2.5-.2,3.8,0,1.3-.1,2.6-.2,4,0,1.3-.1,2.7-.2,4-.1,3.3-.3,6.6-.4,9.9-1.4-.5-2.8-.9-4.2-1.4v-39.2l2.8-1.4Z"/>
  <path class="cls-1" d="M805.1,803.3l5.6,1.4c-.5,11.1-.9,22.2-1.4,33.6q4.4,0,8.9,0,8.9,0,12.1,1.5v2.8c-4.9,1.6-9,1.6-14.2,1.6q-2.6,0-5.3,0-4.3-.2-5.7-1.6c-.1-2.9-.1-5.8-.1-8.7,0-1.8,0-3.5,0-5.3,0-1.9,0-3.8,0-5.6,0-1.9,0-3.8,0-5.6,0-4.6,0-9.2,0-13.9Z"/>
  <path class="cls-1" d="M950.7,803.3q3.2.2,7,1.4,2.4,3.5,4.4,7.7t4,7.7l4.2,1.4c.3-.9.7-1.8,1-2.8,2.2-5.3,4.8-10.3,7.3-15.4h5.6c-2,5.5-4.6,10-7.8,14.9-4.9,8.1-6.3,14.9-6.2,24.3l-4.2,1.4c0-.8.1-1.7.2-2.5,0-13.6-7.1-23.5-14.3-34.6q-1.3-2.1-1.3-3.5Z"/>
</svg>